<svg width="22" height="22" viewBox="0 0 22 22" fill="none" xmlns="http://www.w3.org/2000/svg">
<path d="M3.00028 0.000220284C2.74441 0.000220284 2.48825 0.0976889 2.29325 0.293189L0.29325 2.29319C-0.09775 2.68419 -0.09775 3.31725 0.29325 3.70725L7.58622 11.0002L0.29325 18.2932C-0.09775 18.6842 -0.09775 19.3173 0.29325 19.7073L2.29325 21.7073C2.68425 22.0983 3.31731 22.0983 3.70731 21.7073L11.0003 14.4143L18.2932 21.7073C18.6832 22.0983 19.3173 22.0983 19.7073 21.7073L21.7073 19.7073C22.0983 19.3163 22.0983 18.6832 21.7073 18.2932L14.4143 11.0002L21.7073 3.70725C22.0983 3.31725 22.0983 2.68319 21.7073 2.29319L19.7073 0.293189C19.3163 -0.097811 18.6832 -0.097811 18.2932 0.293189L11.0003 7.58616L3.70731 0.293189C3.51181 0.0976889 3.25616 0.000220284 3.00028 0.000220284Z" fill="white"/>
</svg>
