<svg width="50" height="36" viewBox="0 0 50 36" fill="none" xmlns="http://www.w3.org/2000/svg">
<path d="M3.57143 0H21.4286C22.3758 0 23.2842 0.379285 23.954 1.05442C24.6237 1.72955 25 2.64522 25 3.6C25 4.55478 24.6237 5.47045 23.954 6.14558C23.2842 6.82072 22.3758 7.2 21.4286 7.2H3.57143C2.62423 7.2 1.71582 6.82072 1.04605 6.14558C0.376274 5.47045 0 4.55478 0 3.6C0 2.64522 0.376274 1.72955 1.04605 1.05442C1.71582 0.379285 2.62423 0 3.57143 0ZM28.5714 28.8H46.4286C47.3758 28.8 48.2842 29.1793 48.954 29.8544C49.6237 30.5295 50 31.4452 50 32.4C50 33.3548 49.6237 34.2705 48.954 34.9456C48.2842 35.6207 47.3758 36 46.4286 36H28.5714C27.6242 36 26.7158 35.6207 26.046 34.9456C25.3763 34.2705 25 33.3548 25 32.4C25 31.4452 25.3763 30.5295 26.046 29.8544C26.7158 29.1793 27.6242 28.8 28.5714 28.8ZM3.57143 14.4H46.4286C47.3758 14.4 48.2842 14.7793 48.954 15.4544C49.6237 16.1295 50 17.0452 50 18C50 18.9548 49.6237 19.8705 48.954 20.5456C48.2842 21.2207 47.3758 21.6 46.4286 21.6H3.57143C2.62423 21.6 1.71582 21.2207 1.04605 20.5456C0.376274 19.8705 0 18.9548 0 18C0 17.0452 0.376274 16.1295 1.04605 15.4544C1.71582 14.7793 2.62423 14.4 3.57143 14.4Z" fill="white"/>
</svg>
